HIERARCHY
ROOT Hips
{
  OFFSET -36.9405 89.3161 -44.1405
  CHANNELS 6 Xposition Yposition Zposition Zrotation Xrotation Yrotation
  JOINT ToSpine
  {
    OFFSET -2.69724 7.43032 -0.144315
    CHANNELS 3 Zrotation Xrotation Yrotation
    JOINT Spine
    {
      OFFSET -0.0310711 10.7595 1.96963
      CHANNELS 3 Zrotation Xrotation Yrotation
      JOINT Spine1
      {
        OFFSET 13.1342 3.43533 0.764692
        CHANNELS 3 Zrotation Xrotation Yrotation
        JOINT Neck
        {
          OFFSET 29.8703 7.82586 -0.130764
          CHANNELS 3 Zrotation Xrotation Yrotation
          JOINT Head
          {
            OFFSET 9.52751 0.295786 -0.907742
            CHANNELS 3 Zrotation Xrotation Yrotation
            End Site
            {
              OFFSET 16.4037 0.713936 2.7358
            }
          }
        }
        JOINT LeftShoulder
        {
          OFFSET 27.5574 4.95586 2.47156
          CHANNELS 3 Zrotation Xrotation Yrotation
          JOINT LeftArm
          {
            OFFSET 1.20734 -0.998971 20.1238
            CHANNELS 3 Zrotation Xrotation Yrotation
            JOINT LeftForeArm
            {
              OFFSET 26.8049 -0.0536703 -0.155908
              CHANNELS 3 Zrotation Xrotation Yrotation
              JOINT LeftHand
              {
                OFFSET 26.6817 0 0.320147
                CHANNELS 3 Zrotation Xrotation Yrotation
                End Site
                {
                  OFFSET 18.6119 0 0.382219
                }
              }
            }
          }
        }
        JOINT RightShoulder
        {
          OFFSET 27.5927 4.71444 -2.65209
          CHANNELS 3 Zrotation Xrotation Yrotation
          JOINT RightArm
          {
            OFFSET 2.83739 -1.17114 -18.7564
            CHANNELS 3 Zrotation Xrotation Yrotation
            JOINT RightForeArm
            {
              OFFSET 28.839 -0.0548439 1.22491
              CHANNELS 3 Zrotation Xrotation Yrotation
              JOINT RightHand
              {
                OFFSET 26.5114 0 -0.101894
                CHANNELS 3 Zrotation Xrotation Yrotation
                End Site
                {
                  OFFSET 18.2168 0 0
                }
              }
            }
          }
        }
      }
    }
  }
  JOINT LeftUpLeg
  {
    OFFSET -4.76168 -1.9167 -10.2353
    CHANNELS 3 Zrotation Xrotation Yrotation
    JOINT LeftLeg
    {
      OFFSET 2.55951 -42.0585 -8.02213
      CHANNELS 3 Zrotation Xrotation Yrotation
      JOINT LeftFoot
      {
        OFFSET 3.16357 -42.5282 -3.95426
        CHANNELS 3 Zrotation Xrotation Yrotation
        JOINT LeftToeBase
        {
          OFFSET 0.346054 -6.02161 12.8035
          CHANNELS 3 Zrotation Xrotation Yrotation
          End Site
          {
            OFFSET 0.134235 -1.35082 5.13018
          }
        }
      }
    }
  }
  JOINT RightUpLeg
  {
    OFFSET -4.94151 -1.41743 10.6446
    CHANNELS 3 Zrotation Xrotation Yrotation
    JOINT RightLeg
    {
      OFFSET -2.56294 -42.0364 -7.94377
      CHANNELS 3 Zrotation Xrotation Yrotation
      JOINT RightFoot
      {
        OFFSET -3.0952 -42.555 -4.02241
        CHANNELS 3 Zrotation Xrotation Yrotation
        JOINT RightToeBase
        {
          OFFSET -0.0828122 -6.13587 12.8035
          CHANNELS 3 Zrotation Xrotation Yrotation
          End Site
          {
            OFFSET -0.131328 -1.35082 5.13018
          }
        }
      }
    }
  }
}
MOTION
Frames:	20
Frame Time:	0.0333333
-30.2038 97.786 -15.6353 -4.12022 -69.8502 -94.4237 -70.1915 0 88.8779 67.8802 70.3397 19.7498 3.17826 20.4649 3.55977 -157.185 20.2975 179.43 -162.207 59.8975 -170.34 0.247771 -13.546 -34.4927 -72.7213 46.8347 -85.7067 9.62628 17.0445 -29.8164 0.420957 0.000575562 0.358661 -1.72131 5.55801 45.5571 -70.5945 -34.6857 91.3442 5.54821 -13.83 25.9365 0.58676 0.000331055 0.064665 -53.3824 2.45607 98.9206 -0.519464 21.7468 -8.4434 4.0653 -8.59315 -0.986217 0.0611409 -0.0350483 -0.288669 -53.9611 -1.16107 80.4061 2.60305 15.5775 17.9302 -7.66031 -2.96193 1.17274 0.11447 -1.66296 0.493726 
-30.2514 97.7894 -15.6971 -4.04685 -69.8709 -94.4162 -70.1915 0 88.8779 67.9565 70.3468 19.2824 3.07564 20.3335 3.94333 -157.363 20.1829 179.433 -162.028 59.7573 -170.991 0.265192 -13.478 -34.4534 -73.3222 47.0043 -85.2778 10.0948 17.8553 -29.9051 0.420957 0.000575562 0.358661 -1.74939 5.71047 45.2065 -72.4654 -35.105 90.5611 5.97174 -15.4872 25.7534 0.58676 0.000331055 0.064665 -53.3173 2.42115 98.926 -0.583068 21.8717 -8.59173 3.58369 -8.70227 -0.966775 -0.135199 0.077082 0.458536 -53.8059 -1.18207 80.446 2.52095 15.8457 17.8627 -7.73737 -2.90864 1.18017 0.150213 -1.89024 0.444907 
-30.1454 97.8294 -15.5879 -3.51455 -70.1441 -94.1444 -70.1915 0 88.8779 68.0662 70.2757 18.9265 3.3018 20.2545 3.83578 -157.188 20.181 179.043 -160.135 59.5965 -173.007 0.277104 -13.4302 -34.4357 -73.6501 47.0968 -85.0274 10.4124 18.3576 -30.0086 0.420957 0.000575562 0.358661 -1.75451 5.73944 45.1381 -73.3532 -35.1645 90.1747 6.08297 -16.4826 25.5501 0.58676 0.000331055 0.064665 -53.6137 1.97438 98.8338 -0.469967 21.864 -8.39338 2.38 -9.1678 -0.928317 -0.61582 1.02918 0.651026 -54.0061 -1.73629 80.0794 2.72495 16.1791 18.2665 -7.59992 -3.00779 1.16691 0.229388 -2.07578 0.0575483 
-30.1654 97.8367 -15.5558 -3.44893 -70.2337 -94.0336 -70.1915 0 88.8779 68.2443 70.2424 18.883 3.40214 20.2458 3.68314 -157.029 20.1755 178.975 -159.578 59.5364 -173.545 0.275267 -13.4321 -34.4808 -73.5857 47.1482 -85.0001 10.4352 18.3735 -30.0355 0.420957 0.000575562 0.358661 -1.74561 5.72016 45.0924 -73.3107 -35.1812 90.1368 5.915 -16.1371 25.5102 0.58676 0.000331055 0.064665 -53.6393 1.97099 98.795 -0.384079 22.0414 -8.36676 2.29952 -9.12522 -0.924053 -0.568349 0.994129 0.502744 -54.1902 -1.72418 80.0141 2.80358 16.0856 18.3485 -7.63904 -2.88901 1.16996 0.311935 -2.21324 -0.392373 
-30.1795 97.8319 -15.5208 -3.28785 -70.1462 -93.814 -70.1915 0 88.8779 67.6038 70.1187 19.5537 3.60449 20.196 3.69236 -157.089 20.264 179.057 -159.704 59.633 -173.533 0.270449 -13.4449 -34.5387 -73.4573 47.2314 -85.0704 10.4503 18.6243 -29.8503 0.420957 0.000575562 0.358661 -1.73592 5.70935 44.9885 -73.5381 -35.2329 90.0021 5.85269 -16.1228 25.4603 0.58676 0.000331055 0.064665 -53.5161 2.05344 98.8135 -0.441224 22.1594 -8.5489 2.63636 -8.72965 -0.917149 -0.241828 0.269974 0.541355 -54.1208 -1.68055 80.0167 2.86613 16.0788 18.3196 -8.02041 -2.72646 1.20816 0.383003 -2.63983 -0.541679 
-30.2036 97.8411 -15.4701 -3.65755 -70.0619 -94.1869 -70.1915 0 88.8779 66.8795 70.0549 20.3919 3.80166 20.2619 3.57689 -157.031 20.3322 179.069 -159.791 59.7076 -173.443 0.267016 -13.4605 -34.5292 -73.2672 47.3927 -85.1181 10.0985 18.0617 -29.7361 0.420957 0.000575562 0.358661 -1.73122 5.6883 45.0216 -73.885 -35.2345 89.7729 5.84857 -16.3657 25.3873 0.58676 0.000331055 0.064665 -53.4914 2.12659 98.8303 -0.4437 22.1303 -8.39271 2.42166 -8.98242 -0.920901 -0.446485 0.752545 0.453357 -54.0539 -1.59367 80.0901 2.78211 16.0704 18.1754 -7.61606 -2.94286 1.16763 0.248579 -2.11025 -0.0574621 
-30.2616 97.8456 -15.4098 -3.7469 -70.0354 -94.2251 -70.1915 0 88.8779 66.3635 69.9543 20.9333 3.95005 20.2156 3.62896 -157.058 20.317 179.325 -159.972 59.7075 -173.254 0.276611 -13.4047 -34.6519 -73.9505 47.436 -84.4911 10.5833 18.701 -30.0017 0.420957 0.000575562 0.358661 -1.73166 5.70382 44.9469 -74.239 -35.1334 89.5393 5.88998 -16.8274 25.295 0.58676 0.000331055 0.064665 -53.4572 2.26685 98.8773 -0.495306 22.1952 -8.39804 2.52765 -9.25423 -0.942464 -0.711995 1.30147 0.513614 -54.0775 -1.45564 80.1457 2.73779 16.0721 18.4145 -7.40505 -3.00948 1.1468 0.329281 -1.83053 -0.82082 
-30.2976 97.8311 -15.3799 -3.75407 -70.0988 -94.2186 -70.1915 0 88.8779 66.5455 69.9969 20.824 3.85459 20.2683 3.55097 -156.852 20.3742 179.282 -159.93 59.7648 -173.078 0.273902 -13.4192 -34.6269 -73.4718 47.5314 -84.7215 10.2923 18.1738 -29.9642 0.420957 0.000575562 0.358661 -1.74602 5.69908 45.211 -74.6745 -34.9981 89.0737 5.94399 -16.9558 25.2967 0.58676 0.000331055 0.064665 -53.486 2.32971 98.8787 -0.527167 22.3186 -8.28394 2.85526 -8.87865 -0.936752 -0.252881 0.507552 0.0469439 -54.0531 -1.409 80.1956 2.66688 16.2242 18.0464 -7.43909 -3.0928 1.15148 0.198149 -1.95257 0.165943 
-30.3239 97.8326 -15.3768 -3.72827 -70.2098 -94.2409 -70.1915 0 88.8779 66.8837 70.0949 20.6031 3.80073 20.3914 3.33685 -156.806 20.4654 179.047 -159.694 59.8395 -173.27 0.256383 -13.5024 -34.5497 -73.6687 47.6236 -84.5951 10.5947 18.7045 -30.02 0.420957 0.000575562 0.358661 -1.74228 5.64928 45.4148 -74.9076 -34.8032 88.784 5.98494 -17.1685 25.2705 0.58676 0.000331055 0.064665 -53.5604 2.28321 98.8591 -0.498228 22.3991 -8.40378 2.71409 -8.87682 -0.929739 -0.305299 0.482802 0.369179 -54.0765 -1.4351 80.1755 2.63613 16.41 18.1051 -7.22535 -3.24301 1.13147 0.239717 -1.7883 -0.243556 
-30.3841 97.8376 -15.3862 -3.71805 -70.2961 -94.2641 -70.1915 0 88.8779 66.9034 70.0918 20.6723 3.95859 20.4344 3.15738 -156.897 20.4202 179.135 -159.765 59.8055 -173.148 0.29161 -13.3609 -34.5013 -73.8181 47.6964 -84.4094 10.6852 18.5971 -30.2765 0.420957 0.000575562 0.358661 -1.74297 5.65686 45.3857 -74.5079 -34.831 89.0944 5.99324 -17.0972 25.2989 0.58676 0.000331055 0.064665 -53.5683 2.23367 98.8046 -0.423884 22.5894 -8.70983 2.63728 -8.84012 -0.923739 -0.464987 0.633831 0.812732 -54.0549 -1.43675 80.1631 2.63194 16.6249 18.1579 -7.39385 -3.29669 1.14947 0.305175 -1.85157 -0.63857 
-30.4603 97.8179 -15.434 -3.05438 -70.3507 -93.5239 -70.1915 0 88.8779 66.9278 70.0768 20.5379 3.97208 20.3367 3.42286 -157.034 20.4666 179.706 -160.406 59.9114 -172.421 0.250087 -13.4977 -34.7875 -73.8444 47.6426 -84.3089 10.7228 18.6055 -30.3364 0.420957 0.000575562 0.358661 -1.73592 5.66828 45.2065 -73.2261 -34.8744 89.8049 6.07129 -16.2525 25.6007 0.58676 0.000331055 0.064665 -53.381 2.36691 98.7669 -0.413316 22.9771 -9.49478 2.25079 -8.85196 -0.904562 -0.328351 0.459827 0.533456 -53.9667 -1.30847 80.2507 2.53906 16.8285 17.7454 -7.56562 -3.36102 1.16761 0.297497 -2.00634 -0.461294 
-30.6508 97.7832 -15.5857 -1.72407 -70.4568 -91.9019 -70.1915 0 88.8779 68.3666 70.1392 18.9916 3.45241 20.108 3.86171 -156.922 20.4322 -179.9 -160.69 59.9009 -171.913 0.265281 -13.4485 -34.679 -73.7423 47.7507 -84.4388 10.6344 18.7376 -30.059 0.420957 0.000575562 0.358661 -1.7601 5.75061 45.1716 -71.0781 -35.2304 90.7156 6.22928 -14.0359 26.4998 0.58676 0.000331055 0.064665 -52.8087 2.86206 98.653 -0.492988 24.018 -10.2864 2.16569 -9.1207 -0.916487 -0.292535 0.957866 -0.7635 -53.8103 -0.900446 80.4358 2.41744 17.2585 17.2266 -7.84461 -3.40388 1.19609 0.457388 -2.22843 -1.39737 
-30.9041 97.7116 -15.7751 0.414509 -70.3882 -89.2778 -70.1915 0 88.8779 69.7084 70.186 18.0185 3.10809 20.008 3.93695 -156.75 20.5767 -179.701 -160.561 60.0446 -171.634 0.196714 -13.7055 -34.8866 -72.1792 47.4103 -85.6664 9.81677 17.6528 -29.618 0.420957 0.000575562 0.358661 -1.75195 5.76075 44.9839 -69.5914 -35.6367 91.0993 5.95016 -11.5441 27.858 0.58676 0.000331055 0.064665 -51.7684 3.49153 98.3328 -0.548495 25.3393 -11.3852 2.15915 -9.14308 -0.918205 -0.111757 0.679499 -1.10444 -53.34 -0.229109 80.8441 2.1694 17.8982 15.9301 -7.88541 -3.52042 1.20152 0.570097 -2.58171 -1.91445 
-31.2482 97.6714 -16.1253 3.14923 -70.6914 -86.5169 -70.1915 0 88.8779 72.9608 70.7504 14.5805 2.49578 20.1894 4.13179 -156.899 20.6991 -179.826 -159.099 60.0785 -172.672 0.167441 -13.7952 -35.108 -71.8695 46.5384 -86.3542 10.2772 18.6696 -29.5622 0.420957 0.000575562 0.358661 -1.71945 5.60846 45.2511 -69.7039 -35.7139 90.5475 5.82635 -10.1865 30.156 0.58676 0.000331055 0.064665 -51.3155 3.29466 97.5757 -0.351126 26.0685 -13.4917 1.81837 -7.95353 -0.828305 0.329516 -1.49295 1.96521 -52.6592 0.131084 81.2758 1.56425 19.5008 14.247 -8.00013 -3.79174 1.21508 0.559033 -3.27389 -1.33888 
-31.6472 97.5588 -16.6525 7.54048 -70.3503 -81.602 -70.1915 0 88.8779 76.8872 71.2049 11.2881 1.73459 20.3544 4.21171 -157.709 20.8393 -179.065 -159.018 60.264 -172.479 0.107734 -13.9774 -35.5317 -71.4988 45.6125 -87.3984 10.2186 18.5592 -29.5467 0.420957 0.000575562 0.358661 -1.67647 5.50784 45.0656 -70.2991 -36.09 90.3325 5.63251 -9.46602 31.2094 0.58676 0.000331055 0.064665 -49.5954 3.25083 95.507 -0.124772 27.7415 -13.4465 -0.00655435 -8.43849 -0.750478 0.200011 -0.772443 0.757309 -51.3226 0.768616 81.7902 1.31095 21.0889 10.8809 -9.12824 -3.79131 1.32339 0.487521 -4.29783 0.176233 
-32.1905 97.35 -17.4754 13.6807 -69.5106 -75.1812 -70.1915 0 88.8779 81.4408 71.686 6.78704 0.710731 20.4497 4.80155 -158.778 21.1131 -178.228 -158.873 60.6118 -172.256 -0.00360517 -14.3805 -35.811 -69.7784 44.9111 -89.7522 8.42968 15.28 -29.3151 0.420957 0.000575562 0.358661 -1.6235 5.54188 43.9729 -70.9156 -36.8133 90.8893 5.7297 -9.55838 31.4095 0.58676 0.000331055 0.064665 -47.2729 2.94786 93.2752 -0.645191 29.3781 -12.8973 -0.3092 -7.52579 -0.666899 0.927042 -1.54118 -1.31513 -49.2179 0.743012 81.8654 1.27694 23.6117 8.99318 -8.68588 -4.51265 1.28568 0.748001 -3.51032 -2.53504 
-32.7784 97.2517 -18.5944 21.1472 -68.4022 -68.0823 -70.1915 0 88.8779 90.2011 71.9741 -2.22113 -1.25899 20.5844 4.90615 -160.317 21.4173 -177.293 -160.134 61.1303 -171.026 0.120716 -13.9431 -35.4061 -68.7776 44.1261 -91.7954 8.94294 15.3892 -30.33 0.420957 0.000575562 0.358661 -1.74695 5.76913 44.8577 -70.4607 -35.9177 91.4332 5.45669 -8.95764 31.8308 0.58676 0.000331055 0.064665 -45.4479 1.83868 92.0805 -0.939517 29.9631 -14.815 0.302337 -5.03366 -0.50808 1.43707 -3.09153 -0.149093 -47.2313 -0.391941 81.5835 1.42563 26.0104 5.8093 -7.66773 -5.80928 1.2018 0.368009 -1.69605 -1.24176 
-33.3399 97.3678 -19.5436 28.8818 -66.0999 -61.2214 -70.1915 0 88.8779 92.7398 72.3775 -5.34647 -1.67859 21.0036 4.97128 -161.074 22.2259 -176.451 -160.175 62.053 -170.287 -0.113828 -14.746 -36.2329 -69.3835 42.9436 -92.8067 9.9778 16.3784 -31.562 0.420957 0.000575562 0.358661 -1.78146 5.90261 44.7337 -70.7847 -35.183 91.4263 5.33389 -8.72248 31.926 0.58676 0.000331055 0.064665 -44.6619 0.640997 93.8655 -0.425673 27.5233 -19.1364 -0.46199 -2.93104 -0.270393 1.20925 -2.05108 -1.55216 -45.677 -2.56798 80.9698 1.83328 26.866 3.01374 -7.75465 -6.15456 1.21698 0.231957 -1.65429 -0.303893 
-33.886 97.523 -20.3455 35.2922 -62.9251 -55.5608 -70.1915 0 88.8779 91.6422 72.7275 -4.36546 -1.39818 21.4817 4.47774 -160.958 23.0567 -176.152 -160.068 62.9136 -169.604 -0.219536 -15.1247 -36.4188 -69.2976 42.2127 -94.6079 10.4356 16.3686 -32.7712 0.420957 0.000575562 0.358661 -1.95115 6.54832 44.2381 -72.3621 -34.887 90.6641 5.58979 -9.27935 31.5358 0.58676 0.000331055 0.064665 -44.9598 -0.383712 96.5682 -0.547994 22.6657 -24.1152 -2.56595 -1.82132 0.049559 1.76806 -4.26666 0.93583 -44.5328 -4.67723 80.5515 2.1473 26.5672 0.959935 -7.59934 -6.84108 1.21123 0.172944 -0.0222065 -1.07639 
-34.4837 97.5377 -21.1708 40.5649 -60.0019 -50.252 -70.1915 0 88.8779 92.8546 72.8779 -4.79746 -1.46302 21.9422 3.58812 -159.683 23.778 -177.622 -158.492 63.4399 -170.703 -0.0685072 -14.6753 -35.593 -68.5513 41.9697 -97.004 11.6451 16.9072 -34.9067 0.420957 0.000575562 0.358661 -2.02168 6.60422 45.0133 -70.7788 -32.612 92.2153 3.60042 -6.51369 29.4027 0.58676 0.000331055 0.064665 -45.5079 -0.605773 97.3829 -1.22927 19.961 -24.812 -4.61344 -3.50081 0.103287 4.39532 -10.6027 6.70644 -44.0323 -5.84297 80.2782 2.45331 25.9444 -2.04202 -8.69797 -6.57816 1.28638 0.250222 -0.794889 -1.05603 
